<?xml version="1.0" encoding="UTF-8" standalone="no"?>
<svg
   width="600"
   height="600"
   viewBox="160 140 300 300"
   version="1.1"
   id="svg213"
   sodipodi:docname="dx.svg"
   inkscape:version="1.1.2 (b8e25be8, 2022-02-05)"
   xmlns:inkscape="http://www.inkscape.org/namespaces/inkscape"
   xmlns:sodipodi="http://sodipodi.sourceforge.net/DTD/sodipodi-0.dtd"
   xmlns="http://www.w3.org/2000/svg"
   xmlns:svg="http://www.w3.org/2000/svg">
  <defs
     id="defs217" />
  <sodipodi:namedview
     id="namedview215"
     pagecolor="#ffffff"
     bordercolor="#666666"
     borderopacity="1.0"
     inkscape:pageshadow="2"
     inkscape:pageopacity="0.0"
     inkscape:pagecheckerboard="0"
     showgrid="false"
     inkscape:zoom="0.56172591"
     inkscape:cx="216.29766"
     inkscape:cy="373.84781"
     inkscape:window-width="1312"
     inkscape:window-height="804"
     inkscape:window-x="0"
     inkscape:window-y="38"
     inkscape:window-maximized="0"
     inkscape:current-layer="svg213" />
  <path
     d="m 291.554,328.038 24.59,-37.595 -25.951,-40.337 H 320.8 c 6.875,11.681 12.032,20.597 12.892,22.147 l 11.698,-22.147 h 29.556 l -25.45,39.836 24.399,38.12 h -30.439 c -6.016,-10.466 -10.313,-18.19 -11.698,-20.765 l -11.34,20.765 H 291.53 Z"
     fill="#ffffff"
     id="path195" />
  <path
     d="m 258.096,210.294 v 44.294 c -5.157,-4.625 -12.892,-7.2 -22.513,-7.2 -22.68,0 -38.676,16.641 -38.676,41.529 0,24.889 15.996,41.362 38.676,41.362 10.648,0 20.293,-3.766 25.617,-10.465 l 1.385,8.248 h 22.178 V 210.294 H 258.12 Z m -17.285,96.312 c -11.029,0 -18.024,-8.2 -18.024,-17.403 0,-9.202 7.019,-17.617 18.024,-17.617 11.006,0 18.025,8.201 18.025,17.617 0,9.417 -7.424,17.403 -18.025,17.403 z"
     fill="#ffffff"
     id="path197" />
  <path
     d="M 372.369,310.99088 C 372.369,300.86593 379.71815,292 391.24348,292 c 11.52532,0 18.87552,8.84006 18.87552,18.99088 0,10.14974 -7.77535,18.75912 -18.87552,18.75912 -11.10017,0 -18.87448,-8.84006 -18.87448,-18.75912 z"
     fill="#fde6af"
     id="path201"
     style="stroke-width:1.06244" />
  <g
     aria-label="by galargh"
     transform="rotate(-22.008593)"
     id="text2255"
     style="font-size:40px;line-height:1.2;letter-spacing:-1px;word-spacing:-1px;fill:#a9a0e0">
    <path
       d="m 171.87842,454.01022 v 1.26953 q -2.03125,1.28907 -3.20313,1.28907 -0.64453,0 -1.36718,-0.21485 -1.75782,2.22657 -3.02735,3.26172 -1.25,1.03516 -2.51953,1.03516 -1.46484,0 -2.26562,-1.54297 -0.78125,-1.54297 -0.78125,-3.82813 0,-3.10546 1.875,-6.75781 1.875,-3.67187 4.51171,-6.85547 2.65625,-3.20312 5.13672,-5.29297 2.48047,-2.08984 3.35938,-2.08984 0.83984,0 0.83984,1.15234 0,5.11719 -13.125,17.85157 -0.0391,0.35156 -0.0391,1.38672 0,2.69531 1.44531,2.69531 0.56641,0 1.13281,-0.44922 0.58594,-0.46875 1.77735,-1.75781 -0.46875,-1.05469 -0.46875,-1.5625 0,-1.07422 0.8789,-2.32422 0.87891,-1.25 1.99219,-2.14844 1.13281,-0.91797 1.64063,-0.91797 0.80078,0 0.80078,1.15235 0,0.8789 -0.46875,2.10937 -0.44922,1.23047 -1.32813,2.8125 0.33203,0.27344 0.52735,0.41016 0.19531,0.11718 0.58593,0.11718 0.89844,0 2.08985,-0.80078 z m -9.92188,-2.92968 q 1.01563,-0.87891 2.03125,-2.07032 1.03516,-1.21093 3.00782,-3.6914 1.89453,-2.38282 2.96875,-3.96485 1.09375,-1.60156 1.64062,-2.65625 0.54688,-1.05468 0.54688,-1.44531 0,-0.29297 -0.15625,-0.29297 -0.42969,0 -1.79688,1.42578 -1.34766,1.40625 -3.08594,3.86719 -2.40234,3.39844 -3.47656,5.11719 -1.07422,1.71875 -1.67969,3.71094 z"
       style="font-family:'Brush Script MT';-inkscape-font-specification:'Brush Script MT'"
       id="path51444" />
    <path
       d="m 179.42334,454.73288 -3.47656,2.94922 q -2.48047,2.16797 -3.32032,2.16797 -0.76171,0 -1.60156,-1.73828 -0.83984,-1.75782 -0.83984,-3.06641 0,-1.11328 0.33203,-1.875 0.35156,-0.78125 1.19141,-2.01172 1.1914,-1.66016 2.28515,-2.8125 1.09375,-1.15234 1.9336,-1.77734 0.83984,-0.64453 1.17187,-0.64453 0.52734,0 1.01563,0.54687 0.50781,0.54688 0.50781,1.13281 0,0.3711 -0.54688,1.19141 -0.52734,0.82031 -1.69922,2.08984 -1.15234,1.25 -3.22265,3.00782 l -0.3711,1.07421 q -0.15625,0.3125 -0.15625,0.54688 0,0.52734 0.52735,0.52734 0.54687,0 2.55859,-1.38672 2.03125,-1.38671 4.39453,-3.73046 0.91797,-0.91797 1.52344,-1.6211 0.60547,-0.70312 1.09375,-1.30859 0.48828,-0.625 0.80078,-0.9375 0.33203,-0.3125 0.58594,-0.33203 0.48828,-0.0586 0.76172,0.41015 0.27344,0.46875 0.27344,1.38672 0,0.52735 -0.46875,1.32813 -0.46875,0.78125 -1.75782,2.69531 -1.28906,1.89453 -2.57812,3.94531 -1.26953,2.03125 -2.59766,4.58985 0.0586,-0.0586 1.19141,-1.17188 1.15234,-1.11328 2.42187,-2.32422 1.26953,-1.21094 2.08985,-1.93359 0.82031,-0.74219 2.05078,-1.71875 v 1.30859 q -2.63672,2.83203 -4.78516,5.3711 -2.1289,2.53906 -3.30078,4.0625 -1.15234,1.52343 -1.34766,1.77734 -0.52734,0.68359 -0.95703,1.26953 -0.41015,0.60547 -0.70312,0.91797 -0.27344,0.33203 -0.44922,0.33203 -0.41016,0 -0.74219,-0.82031 -0.3125,-0.80078 -0.3125,-1.42578 0,-0.56641 0.21485,-0.9961 1.40625,-3.16406 6.30859,-10.99609 z"
       style="font-family:'Brush Script MT';-inkscape-font-specification:'Brush Script MT'"
       id="path51446" />
    <path
       d="m 209.22607,455.27975 -6.48437,5.33204 q -2.73438,4.72656 -4.98047,7.05078 -2.24609,2.34375 -3.33984,2.34375 -0.58594,0 -0.58594,-0.72266 0,-1.40625 1.42578,-3.59375 0.56641,-0.85937 1.28906,-1.67969 0.74219,-0.82031 1.38672,-1.42578 0.66406,-0.58594 1.73828,-1.48437 1.07422,-0.87891 1.46485,-1.21094 1.95312,-3.98438 2.8125,-6.09375 -1.83594,1.95312 -3.20313,3.20312 -1.36719,1.25 -2.51953,1.9336 -1.13281,0.66406 -2.05078,0.66406 -0.99609,0 -1.83594,-1.58203 -0.83984,-1.60156 -0.83984,-3.28125 0,-0.78125 0.35156,-1.64063 0.37109,-0.85937 1.13281,-1.83593 0.78125,-0.97657 1.97266,-1.99219 1.19141,-1.03516 2.79297,-2.01172 3.02734,-1.89453 4.70703,-1.89453 1.25,0 1.25,0.91797 0,1.26953 -2.71484,2.48047 -1.66016,0.72265 -3.30079,1.91406 -1.62109,1.19141 -2.63671,2.53906 -0.9961,1.32813 -0.9961,2.40235 0,0.52734 0.25391,0.83984 0.2539,0.3125 0.66406,0.3125 0.68359,0 1.5625,-0.625 0.87891,-0.625 2.59766,-2.20703 0.78125,-0.72266 2.07031,-2.32422 1.30859,-1.62109 2.14844,-2.46094 0.85937,-0.85937 1.54297,-0.85937 0.39062,0 0.625,0.2539 0.2539,0.23438 0.2539,0.70313 0,0.89844 -0.72265,2.61719 -0.70313,1.69921 -2.5586,5.58593 l 4.72656,-3.4375 z"
       style="font-family:'Brush Script MT';-inkscape-font-specification:'Brush Script MT'"
       id="path51448" />
    <path
       d="m 210.37451,450.47507 q 2.96875,-2.69532 5.76172,-4.00391 2.79297,-1.30859 4.31641,-1.30859 0.41015,0 0.76172,0.35156 0.35156,0.33203 0.54687,0.78125 0.21484,0.44922 0.21484,0.66406 0,0.35156 -0.27343,0.52735 -0.27344,0.15625 -0.95703,0.39062 0.13671,0.3125 0.35156,0.80078 0.21484,0.48828 0.33203,0.80078 0.11719,0.29297 0.11719,0.52735 0,0.46875 -0.95703,1.75781 -0.9375,1.26953 -1.32813,1.875 -0.37109,0.60547 -0.37109,1.48437 0,1.44532 1.32812,1.44532 1.36719,0 4.27735,-2.5586 v 1.19141 q -4.94141,5.48828 -7.07032,5.48828 -0.76172,0 -1.09375,-0.50781 -0.3125,-0.48828 -0.3125,-1.46485 0,-1.54296 1.11328,-4.47265 -2.85156,3.16406 -4.23828,4.51172 -1.38672,1.32812 -2.28515,1.32812 -0.42969,0 -1.07422,-0.74219 -0.64453,-0.74218 -1.15235,-1.91406 -0.48828,-1.1914 -0.48828,-2.46094 0,-0.91796 0.17578,-1.52343 0.17579,-0.625 0.6836,-1.26953 0.50781,-0.64454 1.62109,-1.69922 z m 9.35547,-2.14844 q -5.07812,2.32422 -7.24609,3.94531 -2.14844,1.6211 -2.14844,3.33985 0,0.625 0.21484,1.03515 0.21485,0.39063 0.58594,0.39063 0.21484,0 0.76172,-0.27344 2.05078,-1.21094 3.75,-3.14453 1.69922,-1.95313 4.08203,-5.29297 z"
       style="font-family:'Brush Script MT';-inkscape-font-specification:'Brush Script MT'"
       id="path51450" />
    <path
       d="m 232.67529,453.75632 v 1.44531 q -4.08203,5.41016 -6.64062,5.41016 -1.38672,0 -2.1875,-1.50391 -0.78125,-1.52344 -0.78125,-3.98438 0,-1.99218 0.9375,-4.72656 0.9375,-2.7539 2.5,-5.5664 1.58203,-2.83204 3.26172,-4.92188 1.69922,-2.10937 3.14453,-2.94922 0.58594,-0.35156 0.91797,-0.35156 0.41015,0 0.54687,0.37109 0.13672,0.35157 0.13672,1.23047 0,2.71485 -2.20703,6.67969 -2.20703,3.94531 -6.15234,8.06641 -0.19532,1.01562 -0.19532,1.5625 0,1.25 0.52735,2.03125 0.54687,0.78125 1.5039,0.78125 0.48828,0 1.05469,-0.3711 0.56641,-0.39062 1.19141,-0.95703 0.625,-0.56641 2.4414,-2.24609 z m -5.83984,-3.51563 q 1.01562,-0.99609 1.95312,-2.26562 0.95704,-1.26953 1.79688,-2.71485 0.83984,-1.44531 1.30859,-2.59765 0.48828,-1.15235 0.48828,-1.73828 0,-0.44922 -0.3125,-0.44922 -0.11718,0 -0.44921,0.21484 -1.19141,0.97656 -2.67579,3.82813 -1.48437,2.83203 -2.10937,5.72265 z"
       style="font-family:'Brush Script MT';-inkscape-font-specification:'Brush Script MT'"
       id="path51452" />
    <path
       d="m 233.76514,450.47507 q 2.96875,-2.69532 5.76172,-4.00391 2.79296,-1.30859 4.3164,-1.30859 0.41016,0 0.76172,0.35156 0.35156,0.33203 0.54688,0.78125 0.21484,0.44922 0.21484,0.66406 0,0.35156 -0.27344,0.52735 -0.27344,0.15625 -0.95703,0.39062 0.13672,0.3125 0.35156,0.80078 0.21485,0.48828 0.33203,0.80078 0.11719,0.29297 0.11719,0.52735 0,0.46875 -0.95703,1.75781 -0.9375,1.26953 -1.32812,1.875 -0.3711,0.60547 -0.3711,1.48437 0,1.44532 1.32813,1.44532 1.36718,0 4.27734,-2.5586 v 1.19141 q -4.94141,5.48828 -7.07031,5.48828 -0.76172,0 -1.09375,-0.50781 -0.3125,-0.48828 -0.3125,-1.46485 0,-1.54296 1.11328,-4.47265 -2.85156,3.16406 -4.23828,4.51172 -1.38672,1.32812 -2.28516,1.32812 -0.42969,0 -1.07422,-0.74219 -0.64453,-0.74218 -1.15234,-1.91406 -0.48828,-1.1914 -0.48828,-2.46094 0,-0.91796 0.17578,-1.52343 0.17578,-0.625 0.68359,-1.26953 0.50782,-0.64454 1.6211,-1.69922 z m 9.35547,-2.14844 q -5.07813,2.32422 -7.2461,3.94531 -2.14844,1.6211 -2.14844,3.33985 0,0.625 0.21485,1.03515 0.21484,0.39063 0.58594,0.39063 0.21484,0 0.76171,-0.27344 2.05079,-1.21094 3.75,-3.14453 1.69922,-1.95313 4.08204,-5.29297 z"
       style="font-family:'Brush Script MT';-inkscape-font-specification:'Brush Script MT'"
       id="path51454" />
    <path
       d="m 246.53467,455.47507 v -1.26953 q 1.05469,-1.25 1.60156,-2.12891 -0.625,-0.21484 -0.91797,-0.52734 -0.27344,-0.3125 -0.27344,-0.9375 0,-0.70313 0.58594,-1.77735 0.58594,-1.07422 1.44531,-2.01172 0.85938,-0.9375 1.5625,-1.21093 0.27344,-0.13672 0.52735,-0.13672 0.39062,0 0.39062,0.37109 0,0.33203 -0.60547,1.34766 4.02344,-0.625 5.07813,-0.625 0.41016,0 0.56641,0.0781 0.33203,0.17578 0.54687,0.82031 0.21484,0.64454 0.21484,1.28907 0,0.41015 -0.37109,0.89843 -0.35156,0.46875 -1.23047,1.38672 -1.03515,1.11328 -1.73828,2.42188 -0.70312,1.30859 -0.70312,1.97265 0,0.91797 1.13281,0.91797 1.1914,0 4.14062,-2.42187 v 1.30859 q -1.62109,1.69922 -2.67578,2.67578 -1.05469,0.97657 -1.95312,1.5625 -0.89844,0.56641 -1.60157,0.56641 -0.82031,0 -1.36718,-0.74219 -0.54688,-0.76172 -0.54688,-2.1875 0,-0.83984 0.42969,-1.91406 0.42969,-1.07422 1.25,-2.32422 0.83984,-1.26953 1.875,-2.51953 -0.54688,0.11719 -1.23047,0.25391 -0.68359,0.11718 -1.44531,0.2539 -0.76172,0.13672 -1.17188,0.21485 -1.21093,2.42187 -3.51562,4.39453 z"
       style="font-family:'Brush Script MT';-inkscape-font-specification:'Brush Script MT'"
       id="path51456" />
    <path
       d="m 272.97607,455.27975 -6.48437,5.33204 q -2.73438,4.72656 -4.98047,7.05078 -2.24609,2.34375 -3.33984,2.34375 -0.58594,0 -0.58594,-0.72266 0,-1.40625 1.42578,-3.59375 0.56641,-0.85937 1.28906,-1.67969 0.74219,-0.82031 1.38672,-1.42578 0.66406,-0.58594 1.73828,-1.48437 1.07422,-0.87891 1.46485,-1.21094 1.95312,-3.98438 2.8125,-6.09375 -1.83594,1.95312 -3.20313,3.20312 -1.36719,1.25 -2.51953,1.9336 -1.13281,0.66406 -2.05078,0.66406 -0.99609,0 -1.83594,-1.58203 -0.83984,-1.60156 -0.83984,-3.28125 0,-0.78125 0.35156,-1.64063 0.37109,-0.85937 1.13281,-1.83593 0.78125,-0.97657 1.97266,-1.99219 1.19141,-1.03516 2.79297,-2.01172 3.02734,-1.89453 4.70703,-1.89453 1.25,0 1.25,0.91797 0,1.26953 -2.71484,2.48047 -1.66016,0.72265 -3.30079,1.91406 -1.62109,1.19141 -2.63671,2.53906 -0.9961,1.32813 -0.9961,2.40235 0,0.52734 0.25391,0.83984 0.2539,0.3125 0.66406,0.3125 0.68359,0 1.5625,-0.625 0.87891,-0.625 2.59766,-2.20703 0.78125,-0.72266 2.07031,-2.32422 1.30859,-1.62109 2.14844,-2.46094 0.85937,-0.85937 1.54297,-0.85937 0.39062,0 0.625,0.2539 0.2539,0.23438 0.2539,0.70313 0,0.89844 -0.72265,2.61719 -0.70313,1.69921 -2.5586,5.58593 l 4.72656,-3.4375 z"
       style="font-family:'Brush Script MT';-inkscape-font-specification:'Brush Script MT'"
       id="path51458" />
    <path
       d="m 286.44873,453.97116 v 1.23047 q -1.69922,1.73828 -2.94922,2.85156 -1.23047,1.09375 -2.16797,1.66016 -0.91797,0.5664 -1.5625,0.5664 -1.52343,0 -1.52343,-1.79687 0,-1.44531 0.9375,-3.33984 0.95703,-1.91407 2.73437,-4.49219 -0.87891,0.48828 -1.66016,1.13281 -0.78125,0.625 -1.38671,1.32813 -0.60547,0.68359 -1.01563,1.17187 -1.26953,1.42578 -2.44141,2.92969 -1.17187,1.48437 -1.58203,1.93359 -0.41015,0.44922 -0.78125,0.44922 -1.52343,0 -1.52343,-3.75 0,-1.23047 0.37109,-2.71484 0.37109,-1.48438 1.99219,-3.92578 3.41797,-5.11719 5.83984,-8.35938 2.44141,-3.26172 4.04297,-4.92187 1.60156,-1.67969 2.14844,-1.64063 0.68359,0.0586 1.09375,0.27344 0.42968,0.21484 0.42968,0.48828 0,0.48828 -0.68359,1.62109 -0.66406,1.11328 -2.30469,3.4961 -1.77734,2.51953 -2.51953,3.55468 -0.74219,1.01563 -2.22656,2.91016 -1.46484,1.875 -2.69531,3.35938 -1.21094,1.46484 -2.77344,3.18359 v 2.34375 q 2.61719,-2.91016 4.53125,-4.76563 1.91406,-1.85546 3.24219,-2.79296 1.32812,-0.95704 1.95312,-0.95704 0.58594,0 1.09375,0.70313 0.50781,0.68359 0.50781,1.13281 0,0.19531 -0.19531,0.48828 -1.40625,1.67969 -2.24609,2.79297 -0.82031,1.09375 -1.26953,1.97266 -0.44922,0.85937 -0.44922,1.48437 0,0.91797 0.8789,0.91797 0.9375,0 4.16016,-2.51953 z"
       style="font-family:'Brush Script MT';-inkscape-font-specification:'Brush Script MT'"
       id="path51460" />
  </g>
</svg>
