<?xml version="1.0" encoding="UTF-8" standalone="no"?>
<svg
   width="600"
   height="600"
   viewBox="160 140 300 300"
   version="1.1"
   id="svg213"
   sodipodi:docname="dx.svg"
   inkscape:version="1.1.2 (b8e25be8, 2022-02-05)"
   xmlns:inkscape="http://www.inkscape.org/namespaces/inkscape"
   xmlns:sodipodi="http://sodipodi.sourceforge.net/DTD/sodipodi-0.dtd"
   xmlns="http://www.w3.org/2000/svg"
   xmlns:svg="http://www.w3.org/2000/svg">
  <defs
     id="defs217" />
  <sodipodi:namedview
     id="namedview215"
     pagecolor="#ffffff"
     bordercolor="#666666"
     borderopacity="1.0"
     inkscape:pageshadow="2"
     inkscape:pageopacity="0.0"
     inkscape:pagecheckerboard="0"
     showgrid="false"
     inkscape:zoom="0.56172591"
     inkscape:cx="216.29766"
     inkscape:cy="373.84781"
     inkscape:window-width="1312"
     inkscape:window-height="832"
     inkscape:window-x="0"
     inkscape:window-y="38"
     inkscape:window-maximized="0"
     inkscape:current-layer="svg213" />
  <path
     d="m 291.554,328.038 24.59,-37.595 -25.951,-40.337 H 320.8 c 6.875,11.681 12.032,20.597 12.892,22.147 l 11.698,-22.147 h 29.556 l -25.45,39.836 24.399,38.12 h -30.439 c -6.016,-10.466 -10.313,-18.19 -11.698,-20.765 l -11.34,20.765 H 291.53 Z"
     fill="#ffffff"
     id="path195" />
  <path
     d="m 258.096,210.294 v 44.294 c -5.157,-4.625 -12.892,-7.2 -22.513,-7.2 -22.68,0 -38.676,16.641 -38.676,41.529 0,24.889 15.996,41.362 38.676,41.362 10.648,0 20.293,-3.766 25.617,-10.465 l 1.385,8.248 h 22.178 V 210.294 H 258.12 Z m -17.285,96.312 c -11.029,0 -18.024,-8.2 -18.024,-17.403 0,-9.202 7.019,-17.617 18.024,-17.617 11.006,0 18.025,8.201 18.025,17.617 0,9.417 -7.424,17.403 -18.025,17.403 z"
     fill="#ffffff"
     id="path197" />
  <path
     d="M 372.369,310.99088 C 372.369,300.86593 379.71815,292 391.24348,292 c 11.52532,0 18.87552,8.84006 18.87552,18.99088 0,10.14974 -7.77535,18.75912 -18.87552,18.75912 -11.10017,0 -18.87448,-8.84006 -18.87448,-18.75912 z"
     fill="#fde6af"
     id="path201"
     style="stroke-width:1.06244" />

  <text
     xml:space="preserve"
     style="font-style:normal;font-weight:normal;font-size:40px;line-height:1.2;font-family:sans-serif;letter-spacing:-1px;word-spacing:-1px;fill:#a9a0e0;fill-opacity:1;stroke:none"
     x="158.63623"
     y="460.1235"
     id="text2255"
     transform="rotate(-22.008593)"><tspan
       sodipodi:role="line"
       id="tspan2253"
       x="158.63623"
       y="460.1235"
       style="font-style:normal;font-variant:normal;font-weight:normal;font-stretch:normal;font-size:40px;font-family:'Brush Script MT';-inkscape-font-specification:'Brush Script MT';fill:#a9a0e0;fill-opacity:1">by galargh</tspan></text>
</svg>
