<svg width="258" height="129" viewBox="0 0 258 129" fill="none" xmlns="http://www.w3.org/2000/svg">
<path d="M51.8152 58.2582L18.8572 39.4491C18.9312 38.8636 18.9312 38.2781 18.8572 37.6926L51.8152 18.9202C54.5926 20.9328 58.3698 20.9328 61.1472 18.9202L94.0682 37.6926C93.9941 38.2781 93.9941 38.8636 94.0682 39.4491L61.1472 58.2216C58.3698 56.2089 54.5926 56.2089 51.8152 58.2582Z" fill="#2a2838"/>
<path d="M52.2226 111.319C51.6672 111.539 51.1858 111.831 50.7044 112.197L17.7463 93.3883C18.1166 89.9851 16.228 86.7649 13.0803 85.4109V47.8294C13.6358 47.6099 14.1172 47.3171 14.5986 46.9512L47.5196 65.7236C47.1493 69.1268 49.0379 72.3471 52.1856 73.701V111.319H52.2226Z" fill="#2a2838"/>
<path d="M99.8822 85.4115C96.7345 86.7654 94.8089 90.0222 95.2163 93.3888L62.2952 112.161C61.8138 111.832 61.2954 111.539 60.7769 111.283L60.7029 73.9577C63.8506 72.6037 65.7762 69.3469 65.3689 65.9803L98.3269 46.9883C98.8083 47.3176 99.3267 47.6104 99.8452 47.8665V85.4115H99.8822Z" fill="#2a2838"/>
<path d="M56.4813 6.36891L107.807 35.6437V94.1933L56.4813 123.468L5.15565 94.2299V35.6437L56.4813 6.36891ZM56.4813 0.879883L54.0743 2.27044L2.7486 31.5452L0.341553 32.8992V35.6437V94.1933V96.9378L2.7486 98.3284L54.0743 127.603L56.4813 128.994L58.8884 127.603L110.214 98.3284L112.621 96.9378V94.1933V35.6437V32.8992L110.214 31.5086L58.8884 2.23384L56.4813 0.879883Z" fill="#2a2838"/>
<path d="M149.846 42.166H140.432V87.7076H149.846V42.166Z" fill="#2a2838"/>
<path d="M166.263 87.7076V70.9973C168.557 71.1738 170.911 71.1738 172.853 71.1738C186.268 71.1738 190.151 64.525 190.151 56.3463C190.151 46.4024 183.032 42.166 172.088 42.166H156.848V87.7076H166.263ZM171.323 64.5838C169.558 64.5838 167.028 64.5838 166.204 64.525V49.0502H172.088C177.736 49.0502 180.973 51.7568 180.973 56.6993V56.817C181.031 60.7004 179.619 64.5838 171.323 64.5838Z" fill="#2a2838"/>
<path d="M222.336 42.166H193.74V87.7076H203.155V67.6434H221.042V60.8181H203.096V49.1091H221.689L222.336 42.166Z" fill="#2a2838"/>
<path d="M253.33 51.7059L255.715 45.6299C252.195 43.0746 247.368 42.166 241.349 42.166C232.547 42.166 225.335 46.2545 225.335 54.6587C225.335 62.2111 230.9 65.1639 236.409 66.9811L241.973 68.855C245.778 70.161 248.901 71.4103 248.901 75.4988C248.901 79.2466 245.665 80.723 240.724 80.723C235.727 80.723 230.389 79.2466 227.323 77.3159L224.938 83.903C228.913 86.4583 233.967 87.7076 240.724 87.7076C250.378 87.7076 257.816 83.4487 257.816 74.4767C257.816 66.0725 251.4 63.4036 244.926 61.2458L238.907 59.2583C236.295 58.4065 234.308 57.214 234.308 53.8637C234.308 50.4566 237.09 49.0938 241.292 49.0938C246.403 48.9234 250.378 49.8888 253.33 51.7059Z" fill="#2a2838"/>
</svg>
