<?xml version="1.0" encoding="utf-8"?>
<!-- Generator: Adobe Illustrator 24.3.0, SVG Export Plug-In . SVG Version: 6.00 Build 0)  -->
<svg version="1.1" id="Layer_1" xmlns="http://www.w3.org/2000/svg" xmlns:xlink="http://www.w3.org/1999/xlink" x="0px" y="0px"
	 viewBox="0 0 307 134" style="enable-background:new 0 0 307 134;" xml:space="preserve">
<style type="text/css">
	.st0{fill:#2a2838;}
</style>
<path class="st0" d="M116.1,100.7V81.5l-16.6,9.5v19.2L116.1,100.7z"/>
<path class="st0" d="M36.9,121.4L36.9,121.4v-19.1L0.5,81.1v19.2L36.9,121.4L36.9,121.4z"/>
<path class="st0" d="M56.7,133L56.7,133v-19.2l-16.6-9.7v19.2L56.7,133z"/>
<path class="st0" d="M56.7,110L56.7,110L56.7,110l0-19.2l-16.6-9.7l0,19.2L56.7,110z"/>
<path class="st0" d="M76.5,100.5l0-19.2l-16.6,9.5l0,19.2L76.5,100.5z"/>
<path class="st0" d="M74.9,9.7L58.3,0L41.7,9.5l16.6,9.6l0.1,0l0.1,0L74.9,9.7z"/>
<path class="st0" d="M94.7,21.2l-16.2-9.4l0,0l-0.4-0.2l-16.6,9.5l16.7,9.6L94.7,21.2z"/>
<path class="st0" d="M81.3,32.6L98,42.2l16.6-9.5L97.9,23L81.3,32.6z"/>
<path class="st0" d="M79.7,79.4l0,19.2l36.4-20.9l0-42.3L99.5,45l0,23.1L79.7,79.4z"/>
<path class="st0" d="M74.9,32.6l-16.6,9.5L21.9,20.9l16.6-9.5L74.9,32.6z"/>
<path class="st0" d="M94.7,44L78,34.4L61.5,44l16.6,9.6l0.1,0l0.1,0L94.7,44z"/>
<path class="st0" d="M79.8,75.6L96.4,66l-0.1-19.2l-16.6,9.6L79.8,75.6z"/>
<path class="st0" d="M2.1,32.3L18.7,42l16.6-9.5L19.1,23l0,0l-0.4-0.2L2.1,32.3z"/>
<path class="st0" d="M17.1,87V66.8V44.7L0.5,35.1v19.2l0,1l0,22L17.1,87z"/>
<path class="st0" d="M74.9,55.5L38.5,34.3l-16.6,9.5L58.3,65L74.9,55.5z"/>
<path class="st0" d="M56.7,87L56.7,87V67.8l-19-11.1L20.3,46.6v15.9v26.4l16.6,9.7l0-23L56.7,87z"/>
<path class="st0" d="M76.5,77.4V58.2l-16.6,9.5V87L76.5,77.4z"/>
<path class="st0" d="M96.3,112.1V92.9l-36.4,20.9v19.3l8.4-4.7L87.9,117L96.3,112.1z"/>
<path class="st0" d="M141,83.3V48.8h7.2V76h15.9v7.2H141z"/>
<path class="st0" d="M169.3,83.3V48.8h7.2v34.5H169.3z"/>
<path class="st0" d="M184.7,48.8h15.6c3.8,0,6.6,0.9,8.3,2.7c1.8,1.8,2.7,4,2.7,6.7c0,3.6-1.2,5.9-3.7,7.1c1.6,0.6,2.8,1.7,3.6,3.1
	c0.8,1.4,1.2,3,1.2,4.5c0,2.9-0.9,5.3-2.8,7.3c-1.9,2-4.7,3-8.6,3h-16.3V48.8z M199.6,62.2c2.9,0,4.3-1.1,4.3-3.3
	c0-2.1-1.2-3.2-3.6-3.2h-8.5v6.5H199.6z M201.3,76.2c1.3,0,2.3-0.3,2.9-1c0.6-0.7,0.9-1.5,0.9-2.4c0-2.5-1.7-3.8-5.1-3.8h-8.1v7.2
	H201.3z"/>
<path class="st0" d="M219.2,83.3V48.8h14.7c3.9,0,6.9,1.1,8.7,3.2c1.9,2.1,2.8,4.8,2.8,7.9c0,1.3-0.2,2.7-0.7,3.9
	c-0.4,1.2-1.1,2.4-2,3.5c-0.9,1.1-2.1,2-3.6,2.6c-1.5,0.7-3.3,1-5.3,1h-7.5v12.4H219.2z M234.2,63.8c1.3,0,2.2-0.4,2.8-1.2
	c0.6-0.8,0.9-1.7,0.9-2.8c0-1.1-0.3-2-0.9-2.8c-0.6-0.8-1.6-1.2-2.9-1.2h-7.8v8H234.2z"/>
<path class="st0" d="M249.5,83.3c0-3.4,0.5-6.4,1.6-9c1-2.6,2.4-4.7,3.9-6.3c1.6-1.6,3.5-3,5.9-4.4c1.4-0.8,2.4-1.5,3.1-2.3
	c0.8-0.8,1.1-1.7,1.1-2.7c0-2.3-1.2-3.4-3.5-3.4c-2.3,0-4,1.2-5.2,3.5l-6.4-3c1-2.3,2.5-4.2,4.6-5.5c2.1-1.3,4.3-2,6.8-2
	c3.3,0,6,1,7.9,2.9c2,1.9,2.9,4.4,2.9,7.3c0,2.7-0.6,4.9-1.8,6.5c-1.1,1.6-2.9,3.1-5.3,4.5c-2.3,1.4-4,2.6-5,3.6
	c-1,0.9-1.8,2-2.3,3.2h14.6v7.2H249.5z"/>
<path class="st0" d="M280.1,83.3V48.8h14.7c3.9,0,6.9,1.1,8.7,3.2c1.9,2.1,2.8,4.8,2.8,7.9c0,1.3-0.2,2.7-0.7,3.9
	c-0.4,1.2-1.1,2.4-2,3.5c-0.9,1.1-2.1,2-3.6,2.6c-1.5,0.7-3.3,1-5.3,1h-7.5v12.4H280.1z M295.1,63.8c1.3,0,2.2-0.4,2.8-1.2
	c0.6-0.8,0.9-1.7,0.9-2.8c0-1.1-0.3-2-0.9-2.8c-0.6-0.8-1.6-1.2-2.9-1.2h-7.8v8H295.1z"/>
</svg>
