<svg version="1.1" id="Layer_1" xmlns="http://www.w3.org/2000/svg" xmlns:xlink="http://www.w3.org/1999/xlink" x="0px" y="0px"
	 width="100%" viewBox="0 0 2260 2850" enable-background="new 0 0 2260 2850" xml:space="preserve">
<path fill="#2a2838" opacity="1.000000" stroke="none"
	d="
M2.000000,1054.000000
	C2.000000,702.666687 2.000000,352.333344 2.000000,2.000000
	C755.333313,2.000000 1508.666626,2.000000 2262.000000,2.000000
	C2262.000000,952.000000 2262.000000,1902.000000 2262.000000,2852.000000
	C1508.666626,2852.000000 755.333313,2852.000000 2.000000,2852.000000
	C2.000000,2253.000000 2.000000,1654.000000 2.000000,1054.000000
M426.999939,2218.203125
	C542.826660,2218.203125 658.653442,2218.203125 775.625977,2218.203125
	C775.625977,1979.375610 775.625977,1741.986572 775.625977,1502.548462
	C779.526978,1506.343506 781.856384,1508.552612 784.123169,1510.824219
	C797.307678,1524.036377 810.456848,1537.283813 823.655212,1550.482300
	C1044.259277,1771.088989 1264.879517,1991.679565 1485.393188,2212.376709
	C1489.457397,2216.444092 1493.378662,2218.328369 1499.226562,2218.324707
	C1733.880981,2218.181885 1968.535400,2218.204346 2203.189941,2218.184326
	C2205.748047,2218.184082 2208.306152,2217.899170 2210.734863,2217.754639
	C2212.757324,2200.374023 2212.022949,1505.860107 2209.802490,1497.945068
	C1732.192017,1497.945068 1254.327515,1497.945068 775.390991,1497.945068
	C775.390991,1258.376465 775.390991,1019.708862 775.390991,779.143982
	C771.305237,783.073303 768.680176,785.515991 766.144470,788.048096
	C664.019836,890.029053 561.901184,992.015930 459.786041,1094.006348
	C326.542175,1227.087524 193.317642,1360.188110 59.982216,1493.177368
	C56.131802,1497.017700 54.515965,1500.813843 54.518761,1506.251343
	C54.639484,1740.905884 54.620670,1975.560303 54.650757,2210.214844
	C54.651081,2212.738525 55.072121,2215.262207 55.333885,2218.203125
	C179.051926,2218.203125 302.025940,2218.203125 426.999939,2218.203125
M58.385109,616.999817
	C58.385109,669.545410 58.385109,722.090942 58.385109,775.817505
	C537.695740,775.817505 1015.780212,775.817505 1494.607422,775.817505
	C1494.607422,1015.420715 1494.607422,1253.834717 1494.607422,1494.215332
	C1498.500488,1490.526489 1501.106201,1488.164062 1503.594360,1485.683838
	C1552.217529,1437.213135 1600.859009,1388.760864 1649.433472,1340.241577
	C1836.192017,1153.694702 2022.915527,967.112793 2209.753906,780.645874
	C2213.872314,776.535461 2215.481689,772.403076 2215.478760,766.654480
	C2215.359863,532.682617 2215.378418,298.710693 2215.356445,64.738770
	C2215.356201,61.876492 2215.054688,59.014233 2214.900635,56.278168
	C1974.503296,56.278168 1735.016113,56.278168 1495.904785,56.278168
	C1495.349243,57.138428 1495.010010,57.418301 1495.009766,57.698433
	C1494.833252,292.991882 1494.680054,528.285400 1494.513306,763.578857
	C1494.512085,765.237000 1494.346191,766.896973 1494.196289,768.550598
	C1494.176636,768.766418 1493.816162,768.992432 1493.568481,769.135803
	C1493.284302,769.300354 1492.949707,769.377930 1492.118286,769.684570
	C1491.190186,768.597229 1490.192139,767.252625 1489.020996,766.081116
	C1418.564087,695.606201 1348.080078,625.158325 1277.625732,554.680908
	C1113.624268,390.625885 949.615845,226.577866 785.744080,62.393406
	C780.888611,57.528614 776.150513,55.467220 769.246521,55.537769
	C734.920898,55.888531 700.589722,55.697884 666.260498,55.697884
	C467.617676,55.697884 268.974854,55.697884 70.332031,55.697884
	C66.492867,55.697884 62.653709,55.697887 58.385113,55.697887
	C58.385113,243.128052 58.385113,429.063904 58.385109,616.999817
M1849.062012,2672.229248
	C1882.308716,2650.505859 1895.876465,2619.206299 1891.145386,2580.581787
	C1886.520996,2542.827148 1865.099487,2518.225830 1828.178711,2507.541748
	C1811.714111,2502.777344 1794.853882,2500.958008 1777.861206,2500.821045
	C1741.208984,2500.525635 1704.552734,2500.716553 1667.898193,2500.757568
	C1665.359619,2500.760254 1662.821533,2501.166748 1660.499512,2501.366699
	C1660.499512,2597.254395 1660.499512,2692.379883 1660.499512,2787.541992
	C1681.688110,2787.541992 1702.204956,2787.541992 1723.789795,2787.541992
	C1723.789795,2754.964600 1723.789795,2722.856201 1723.789795,2690.439941
	C1739.443481,2690.439941 1754.025635,2690.439941 1769.080078,2690.439941
	C1792.212402,2722.730713 1815.465942,2755.190918 1838.604492,2787.490479
	C1858.006958,2789.076416 1907.005005,2788.430908 1914.794678,2786.320557
	C1888.642822,2750.458740 1862.651855,2714.817627 1836.449585,2678.886963
	C1840.729492,2676.675293 1844.267090,2674.847412 1849.062012,2672.229248
M1955.182373,2578.999268
	C1955.182373,2648.499512 1955.182373,2717.999756 1955.182373,2787.579102
	C1957.613403,2787.795898 1958.926758,2788.014404 1960.240234,2788.014893
	C1989.210571,2788.027100 2018.183472,2788.255371 2047.150269,2787.931641
	C2070.181885,2787.674072 2092.944824,2784.856201 2115.015381,2777.917725
	C2157.773926,2764.474854 2187.643555,2737.153076 2202.898682,2694.770752
	C2212.090332,2669.234619 2213.997803,2642.740967 2209.738770,2616.039307
	C2201.821777,2566.401367 2175.664551,2531.066406 2127.586426,2513.356934
	C2102.248535,2504.023926 2075.849365,2501.218506 2049.158691,2500.824219
	C2020.527710,2500.401123 1991.885498,2500.710205 1963.248169,2500.759766
	C1960.739380,2500.764160 1958.231201,2501.213867 1955.182373,2501.508789
	C1955.182373,2527.133301 1955.182373,2552.066162 1955.182373,2578.999268
M542.356567,2677.123047
	C542.356567,2713.961670 542.356567,2750.800293 542.356567,2787.502197
	C564.394104,2787.502197 584.930603,2787.502197 605.675354,2787.502197
	C605.675354,2691.840820 605.675354,2596.712646 605.675354,2501.658447
	C592.350952,2499.890625 549.696167,2500.363037 542.070190,2502.477783
	C542.070190,2539.148682 542.070190,2576.026611 542.070190,2613.076172
	C499.567474,2613.076172 457.796143,2613.076172 415.284760,2613.076172
	C415.284760,2575.546631 415.284760,2538.669434 415.284760,2501.397949
	C393.776611,2501.397949 373.018005,2501.397949 352.391052,2501.397949
	C352.391052,2597.214111 352.391052,2692.357422 352.391052,2787.535889
	C373.567383,2787.535889 394.083008,2787.535889 415.773804,2787.535889
	C415.773804,2749.303223 415.773804,2711.548584 415.773804,2673.489746
	C419.266693,2673.489746 421.577454,2673.489502 423.888245,2673.489502
	C461.882812,2673.492920 499.877411,2673.478271 537.871765,2673.569092
	C539.321777,2673.572510 540.769287,2674.594238 542.356567,2677.123047
M236.587128,2785.768799
	C252.260864,2779.370605 265.788849,2769.962158 276.986847,2757.207764
	C307.353485,2722.620117 305.720886,2657.207031 249.482025,2632.607910
	C225.323380,2622.040527 200.441223,2613.843506 174.693542,2608.221436
	C164.533096,2606.002930 154.916138,2602.399170 146.259750,2596.554199
	C137.640839,2590.734619 135.171555,2584.107178 137.651764,2574.214355
	C140.615967,2562.390381 149.875977,2558.103027 160.376785,2556.023193
	C192.508209,2549.658691 220.179764,2558.850586 243.975906,2580.836182
	C246.571350,2583.234131 249.157074,2585.642334 252.002380,2588.282471
	C266.438446,2574.384033 280.311798,2561.027344 294.442505,2547.422852
	C282.596313,2531.458252 268.547882,2518.987305 251.406754,2510.172852
	C219.630447,2493.833008 185.999176,2491.005859 151.325989,2497.285400
	C128.407211,2501.435791 108.739494,2511.865479 92.416931,2528.677490
	C62.457180,2559.535156 63.237976,2611.073730 95.483009,2638.491211
	C101.736702,2643.808350 108.992043,2648.282959 116.414734,2651.828613
	C140.507736,2663.337646 165.994278,2670.989990 191.775558,2677.720459
	C203.117035,2680.681396 214.103882,2684.682617 222.928528,2692.754395
	C233.620728,2702.534668 233.423187,2717.036865 221.679886,2725.419434
	C215.957581,2729.504150 208.624222,2732.506104 201.666092,2733.487305
	C166.050064,2738.509766 136.064651,2727.241943 112.159500,2700.280029
	C108.216034,2695.832520 104.786903,2690.928711 100.821487,2685.853516
	C85.333214,2698.790039 70.083656,2711.527344 55.032005,2724.099365
	C88.596245,2790.116943 177.738220,2807.162354 236.587128,2785.768799
M812.605225,2656.999756
	C812.605225,2700.512939 812.605225,2744.026123 812.605225,2787.548340
	C834.488708,2787.548340 855.015137,2787.548340 876.499878,2787.548340
	C876.499878,2757.613770 876.499878,2728.148926 876.499878,2697.931641
	C895.043396,2697.931641 912.651672,2698.435791 930.216187,2697.775391
	C944.802307,2697.227295 959.502014,2696.262695 973.855774,2693.775879
	C995.640625,2690.001709 1014.959839,2680.730713 1029.904663,2663.676758
	C1052.574463,2637.807373 1058.155151,2607.699463 1050.935547,2575.008545
	C1043.972534,2543.479980 1025.279297,2521.521240 994.508606,2510.399902
	C975.157410,2503.406006 955.020935,2501.011475 934.669067,2500.826172
	C896.698792,2500.479736 858.723083,2500.711182 820.749695,2500.758057
	C818.211914,2500.761230 815.674683,2501.232666 812.605286,2501.539551
	C812.605286,2553.149658 812.605286,2604.074707 812.605225,2656.999756
M1323.083374,2784.411133
	C1323.586426,2785.593262 1324.080933,2787.805176 1324.593628,2787.809326
	C1345.525024,2787.982910 1366.458130,2787.957520 1387.380615,2787.957520
	C1395.448486,2769.749756 1403.236084,2752.174072 1410.915039,2734.843750
	C1451.272095,2734.843750 1490.814941,2734.843750 1530.582031,2734.843750
	C1538.517578,2752.766846 1546.306763,2770.359863 1553.958252,2787.641602
	C1576.250000,2787.641602 1597.805298,2787.641602 1620.650146,2787.641602
	C1578.516479,2691.612549 1536.735107,2596.386963 1494.764282,2500.729492
	C1481.676147,2500.729492 1469.033447,2501.147705 1456.437622,2500.560791
	C1449.715820,2500.247314 1446.593018,2502.417236 1443.868652,2508.671875
	C1404.012573,2600.175049 1363.840820,2691.540771 1323.083374,2784.411133
M1332.969238,2500.722900
	C1320.646851,2500.722900 1308.314331,2501.017090 1296.006226,2500.596191
	C1290.021729,2500.391846 1286.404907,2502.296143 1283.138184,2507.452881
	C1261.594116,2541.460205 1239.720337,2575.258789 1217.912231,2609.098389
	C1216.751221,2610.899414 1215.213135,2612.457764 1213.517578,2614.537598
	C1211.797974,2611.849365 1210.539917,2609.910400 1209.309082,2607.954346
	C1188.221924,2574.444092 1167.041260,2540.991943 1146.162964,2507.352051
	C1143.192627,2502.566162 1140.129150,2500.462646 1134.304321,2500.573486
	C1113.996460,2500.959229 1093.676758,2500.699707 1073.361816,2500.757324
	C1071.261475,2500.763184 1069.162476,2501.250000 1066.195190,2501.622559
	C1069.202148,2506.509766 1071.602661,2510.471191 1074.060669,2514.396973
	C1107.961914,2568.539551 1141.805542,2622.718750 1175.876587,2676.754395
	C1179.422974,2682.379150 1180.888306,2687.932617 1180.828735,2694.514893
	C1180.578369,2722.154541 1180.722900,2749.797852 1180.722900,2777.439697
	C1180.722900,2780.684082 1180.722900,2783.928711 1180.722900,2787.464600
	C1202.532593,2787.464600 1223.292480,2787.464600 1244.823486,2787.464600
	C1244.823486,2783.612061 1244.823608,2780.327393 1244.823608,2777.042725
	C1244.823608,2750.399902 1245.096680,2723.752686 1244.663330,2697.116943
	C1244.526733,2688.713867 1246.762817,2681.804932 1251.219116,2674.807373
	C1286.422607,2619.527832 1321.372681,2564.086426 1356.368408,2508.674561
	C1357.802734,2506.403809 1358.918945,2503.931885 1360.625122,2500.722900
	C1350.933960,2500.722900 1342.943604,2500.722900 1332.969238,2500.722900
M709.003662,2500.723877
	C698.768921,2500.723877 688.534180,2500.723877 678.379517,2500.723877
	C678.379517,2597.104980 678.379517,2692.254150 678.379517,2787.344482
	C696.798584,2789.053955 734.281189,2788.457031 741.165771,2786.418945
	C741.165771,2691.549805 741.165771,2596.690674 741.165771,2500.723877
	C730.817993,2500.723877 720.906250,2500.723877 709.003662,2500.723877
z"/>
<path fill="none" opacity="1.000000" stroke="none"
	d="
M425.999939,2218.203125
	C302.025940,2218.203125 179.051926,2218.203125 55.333885,2218.203125
	C55.072121,2215.262207 54.651081,2212.738525 54.650757,2210.214844
	C54.620670,1975.560303 54.639484,1740.905884 54.518761,1506.251343
	C54.515965,1500.813843 56.131802,1497.017700 59.982216,1493.177368
	C193.317642,1360.188110 326.542175,1227.087524 459.786041,1094.006348
	C561.901184,992.015930 664.019836,890.029053 766.144470,788.048096
	C768.680176,785.515991 771.305237,783.073303 775.390991,779.143982
	C775.390991,1019.708862 775.390991,1258.376465 775.390991,1497.945068
	C1254.327515,1497.945068 1732.192017,1497.945068 2209.802490,1497.945068
	C2212.022949,1505.860107 2212.757324,2200.374023 2210.734863,2217.754639
	C2208.306152,2217.899170 2205.748047,2218.184082 2203.189941,2218.184326
	C1968.535400,2218.204346 1733.880981,2218.181885 1499.226562,2218.324707
	C1493.378662,2218.328369 1489.457397,2216.444092 1485.393188,2212.376709
	C1264.879517,1991.679565 1044.259277,1771.088989 823.655212,1550.482300
	C810.456848,1537.283813 797.307678,1524.036377 784.123169,1510.824219
	C781.856384,1508.552612 779.526978,1506.343506 775.625977,1502.548462
	C775.625977,1741.986572 775.625977,1979.375610 775.625977,2218.203125
	C658.653442,2218.203125 542.826660,2218.203125 425.999939,2218.203125
z"/>
<path fill="none" opacity="1.000000" stroke="none"
	d="
M58.385109,615.999756
	C58.385113,429.063904 58.385113,243.128052 58.385113,55.697887
	C62.653709,55.697887 66.492867,55.697884 70.332031,55.697884
	C268.974854,55.697884 467.617676,55.697884 666.260498,55.697884
	C700.589722,55.697884 734.920898,55.888531 769.246521,55.537769
	C776.150513,55.467220 780.888611,57.528614 785.744080,62.393406
	C949.615845,226.577866 1113.624268,390.625885 1277.625732,554.680908
	C1348.080078,625.158325 1418.564087,695.606201 1489.020996,766.081116
	C1490.192139,767.252625 1491.190186,768.597229 1492.118286,769.684570
	C1492.949707,769.377930 1493.284302,769.300354 1493.568481,769.135803
	C1493.816162,768.992432 1494.176636,768.766418 1494.196289,768.550598
	C1494.346191,766.896973 1494.512085,765.237000 1494.513306,763.578857
	C1494.680054,528.285400 1494.833252,292.991882 1495.009766,57.698433
	C1495.010010,57.418301 1495.349243,57.138428 1495.904785,56.278168
	C1735.016113,56.278168 1974.503296,56.278168 2214.900635,56.278168
	C2215.054688,59.014233 2215.356201,61.876492 2215.356445,64.738770
	C2215.378418,298.710693 2215.359863,532.682617 2215.478760,766.654480
	C2215.481689,772.403076 2213.872314,776.535461 2209.753906,780.645874
	C2022.915527,967.112793 1836.192017,1153.694702 1649.433472,1340.241577
	C1600.859009,1388.760864 1552.217529,1437.213135 1503.594360,1485.683838
	C1501.106201,1488.164062 1498.500488,1490.526489 1494.607422,1494.215332
	C1494.607422,1253.834717 1494.607422,1015.420715 1494.607422,775.817505
	C1015.780212,775.817505 537.695740,775.817505 58.385109,775.817505
	C58.385109,722.090942 58.385109,669.545410 58.385109,615.999756
z"/>
<path fill="none" opacity="1.000000" stroke="none"
	d="
M1848.433350,2672.624512
	C1844.267090,2674.847412 1840.729492,2676.675293 1836.449585,2678.886963
	C1862.651855,2714.817627 1888.642822,2750.458740 1914.794678,2786.320557
	C1907.005005,2788.430908 1858.006958,2789.076416 1838.604492,2787.490479
	C1815.465942,2755.190918 1792.212402,2722.730713 1769.080078,2690.439941
	C1754.025635,2690.439941 1739.443481,2690.439941 1723.789795,2690.439941
	C1723.789795,2722.856201 1723.789795,2754.964600 1723.789795,2787.541992
	C1702.204956,2787.541992 1681.688110,2787.541992 1660.499512,2787.541992
	C1660.499512,2692.379883 1660.499512,2597.254395 1660.499512,2501.366699
	C1662.821533,2501.166748 1665.359619,2500.760254 1667.898193,2500.757568
	C1704.552734,2500.716553 1741.208984,2500.525635 1777.861206,2500.821045
	C1794.853882,2500.958008 1811.714111,2502.777344 1828.178711,2507.541748
	C1865.099487,2518.225830 1886.520996,2542.827148 1891.145386,2580.581787
	C1895.876465,2619.206299 1882.308716,2650.505859 1848.433350,2672.624512
M1824.484253,2585.177002
	C1822.261963,2576.198730 1817.099365,2569.394287 1808.499634,2566.033936
	C1802.995361,2563.883057 1797.025513,2562.108154 1791.178711,2561.802246
	C1773.569824,2560.880615 1755.919312,2560.738281 1738.283936,2560.343506
	C1733.705200,2560.240967 1729.122314,2560.327881 1724.157593,2560.327881
	C1724.157593,2584.052246 1724.157593,2606.836182 1724.157593,2630.333984
	C1741.556274,2630.333984 1758.472778,2630.375732 1775.388916,2630.306396
	C1780.048218,2630.287354 1784.739014,2630.220947 1789.359375,2629.689697
	C1815.417847,2626.695068 1828.370361,2610.971924 1824.484253,2585.177002
z"/>
<path fill="none" opacity="1.000000" stroke="none"
	d="
M1955.182373,2577.999023
	C1955.182373,2552.066162 1955.182373,2527.133301 1955.182373,2501.508789
	C1958.231201,2501.213867 1960.739380,2500.764160 1963.248169,2500.759766
	C1991.885498,2500.710205 2020.527710,2500.401123 2049.158691,2500.824219
	C2075.849365,2501.218506 2102.248535,2504.023926 2127.586426,2513.356934
	C2175.664551,2531.066406 2201.821777,2566.401367 2209.738770,2616.039307
	C2213.997803,2642.740967 2212.090332,2669.234619 2202.898682,2694.770752
	C2187.643555,2737.153076 2157.773926,2764.474854 2115.015381,2777.917725
	C2092.944824,2784.856201 2070.181885,2787.674072 2047.150269,2787.931641
	C2018.183472,2788.255371 1989.210571,2788.027100 1960.240234,2788.014893
	C1958.926758,2788.014404 1957.613403,2787.795898 1955.182373,2787.579102
	C1955.182373,2717.999756 1955.182373,2648.499512 1955.182373,2577.999023
M2082.960938,2724.340088
	C2087.412598,2723.016846 2091.947998,2721.922607 2096.302246,2720.332520
	C2120.573730,2711.468018 2136.642822,2694.771729 2142.150635,2669.378662
	C2144.591309,2658.125732 2145.891846,2646.301025 2145.482422,2634.815186
	C2144.222168,2599.480713 2125.698486,2576.455322 2091.827881,2566.397461
	C2076.384033,2561.811279 2060.430420,2560.897949 2044.465698,2560.381104
	C2036.268066,2560.115479 2028.054810,2560.334717 2019.625000,2560.334717
	C2019.625000,2616.735107 2019.625000,2671.890381 2019.625000,2728.015381
	C2040.486938,2727.808594 2061.022949,2729.464111 2082.960938,2724.340088
z"/>
<path fill="none" opacity="1.000000" stroke="none"
	d="
M542.287231,2676.132324
	C540.769287,2674.594238 539.321777,2673.572510 537.871765,2673.569092
	C499.877411,2673.478271 461.882812,2673.492920 423.888245,2673.489502
	C421.577454,2673.489502 419.266693,2673.489746 415.773804,2673.489746
	C415.773804,2711.548584 415.773804,2749.303223 415.773804,2787.535889
	C394.083008,2787.535889 373.567383,2787.535889 352.391052,2787.535889
	C352.391052,2692.357422 352.391052,2597.214111 352.391052,2501.397949
	C373.018005,2501.397949 393.776611,2501.397949 415.284760,2501.397949
	C415.284760,2538.669434 415.284760,2575.546631 415.284760,2613.076172
	C457.796143,2613.076172 499.567474,2613.076172 542.070190,2613.076172
	C542.070190,2576.026611 542.070190,2539.148682 542.070190,2502.477783
	C549.696167,2500.363037 592.350952,2499.890625 605.675354,2501.658447
	C605.675354,2596.712646 605.675354,2691.840820 605.675354,2787.502197
	C584.930603,2787.502197 564.394104,2787.502197 542.356567,2787.502197
	C542.356567,2750.800293 542.356567,2713.961670 542.287231,2676.132324
z"/>
<path fill="none" opacity="1.000000" stroke="none"
	d="
M235.849625,2786.006348
	C177.738220,2807.162354 88.596245,2790.116943 55.032005,2724.099365
	C70.083656,2711.527344 85.333214,2698.790039 100.821487,2685.853516
	C104.786903,2690.928711 108.216034,2695.832520 112.159500,2700.280029
	C136.064651,2727.241943 166.050064,2738.509766 201.666092,2733.487305
	C208.624222,2732.506104 215.957581,2729.504150 221.679886,2725.419434
	C233.423187,2717.036865 233.620728,2702.534668 222.928528,2692.754395
	C214.103882,2684.682617 203.117035,2680.681396 191.775558,2677.720459
	C165.994278,2670.989990 140.507736,2663.337646 116.414734,2651.828613
	C108.992043,2648.282959 101.736702,2643.808350 95.483009,2638.491211
	C63.237976,2611.073730 62.457180,2559.535156 92.416931,2528.677490
	C108.739494,2511.865479 128.407211,2501.435791 151.325989,2497.285400
	C185.999176,2491.005859 219.630447,2493.833008 251.406754,2510.172852
	C268.547882,2518.987305 282.596313,2531.458252 294.442505,2547.422852
	C280.311798,2561.027344 266.438446,2574.384033 252.002380,2588.282471
	C249.157074,2585.642334 246.571350,2583.234131 243.975906,2580.836182
	C220.179764,2558.850586 192.508209,2549.658691 160.376785,2556.023193
	C149.875977,2558.103027 140.615967,2562.390381 137.651764,2574.214355
	C135.171555,2584.107178 137.640839,2590.734619 146.259750,2596.554199
	C154.916138,2602.399170 164.533096,2606.002930 174.693542,2608.221436
	C200.441223,2613.843506 225.323380,2622.040527 249.482025,2632.607910
	C305.720886,2657.207031 307.353485,2722.620117 276.986847,2757.207764
	C265.788849,2769.962158 252.260864,2779.370605 235.849625,2786.006348
z"/>
<path fill="none" opacity="1.000000" stroke="none"
	d="
M812.605225,2655.999512
	C812.605286,2604.074707 812.605286,2553.149658 812.605286,2501.539551
	C815.674683,2501.232666 818.211914,2500.761230 820.749695,2500.758057
	C858.723083,2500.711182 896.698792,2500.479736 934.669067,2500.826172
	C955.020935,2501.011475 975.157410,2503.406006 994.508606,2510.399902
	C1025.279297,2521.521240 1043.972534,2543.479980 1050.935547,2575.008545
	C1058.155151,2607.699463 1052.574463,2637.807373 1029.904663,2663.676758
	C1014.959839,2680.730713 995.640625,2690.001709 973.855774,2693.775879
	C959.502014,2696.262695 944.802307,2697.227295 930.216187,2697.775391
	C912.651672,2698.435791 895.043396,2697.931641 876.499878,2697.931641
	C876.499878,2728.148926 876.499878,2757.613770 876.499878,2787.548340
	C855.015137,2787.548340 834.488708,2787.548340 812.605225,2787.548340
	C812.605225,2744.026123 812.605225,2700.512939 812.605225,2655.999512
M974.482971,2627.682373
	C987.248291,2617.453613 989.462891,2603.967041 986.123718,2588.975098
	C983.025696,2575.065674 973.213623,2567.753662 960.250610,2564.016602
	C956.121887,2562.826416 951.805237,2561.768311 947.545044,2561.641846
	C926.584839,2561.019043 905.615173,2560.704346 884.647583,2560.356201
	C882.101807,2560.313965 879.548462,2560.727051 876.834717,2560.941895
	C876.834717,2586.740234 876.834717,2611.898682 876.834717,2637.123535
	C878.219116,2637.480713 879.141052,2637.926270 880.062927,2637.926025
	C900.384888,2637.923584 920.715332,2638.209961 941.025391,2637.696777
	C952.384399,2637.409668 963.496277,2635.048096 974.482971,2627.682373
z"/>
<path fill="none" opacity="1.000000" stroke="none"
	d="
M1323.413818,2783.675293
	C1363.840820,2691.540771 1404.012573,2600.175049 1443.868652,2508.671875
	C1446.593018,2502.417236 1449.715820,2500.247314 1456.437622,2500.560791
	C1469.033447,2501.147705 1481.676147,2500.729492 1494.764282,2500.729492
	C1536.735107,2596.386963 1578.516479,2691.612549 1620.650146,2787.641602
	C1597.805298,2787.641602 1576.250000,2787.641602 1553.958252,2787.641602
	C1546.306763,2770.359863 1538.517578,2752.766846 1530.582031,2734.843750
	C1490.814941,2734.843750 1451.272095,2734.843750 1410.915039,2734.843750
	C1403.236084,2752.174072 1395.448486,2769.749756 1387.380615,2787.957520
	C1366.458130,2787.957520 1345.525024,2787.982910 1324.593628,2787.809326
	C1324.080933,2787.805176 1323.586426,2785.593262 1323.413818,2783.675293
M1436.295532,2680.451904
	C1459.422607,2680.451904 1482.549561,2680.451904 1507.006592,2680.451904
	C1494.733276,2651.985352 1483.056030,2624.901611 1470.862549,2596.620605
	C1469.338257,2599.159912 1468.554565,2600.198975 1468.042603,2601.358398
	C1457.314575,2625.653809 1446.596558,2649.953857 1435.958740,2674.288818
	C1435.203247,2676.016846 1435.080444,2678.021484 1436.295532,2680.451904
z"/>
<path fill="none" opacity="1.000000" stroke="none"
	d="
M1333.961304,2500.722900
	C1342.943604,2500.722900 1350.933960,2500.722900 1360.625122,2500.722900
	C1358.918945,2503.931885 1357.802734,2506.403809 1356.368408,2508.674561
	C1321.372681,2564.086426 1286.422607,2619.527832 1251.219116,2674.807373
	C1246.762817,2681.804932 1244.526733,2688.713867 1244.663330,2697.116943
	C1245.096680,2723.752686 1244.823608,2750.399902 1244.823608,2777.042725
	C1244.823608,2780.327393 1244.823486,2783.612061 1244.823486,2787.464600
	C1223.292480,2787.464600 1202.532593,2787.464600 1180.722900,2787.464600
	C1180.722900,2783.928711 1180.722900,2780.684082 1180.722900,2777.439697
	C1180.722900,2749.797852 1180.578369,2722.154541 1180.828735,2694.514893
	C1180.888306,2687.932617 1179.422974,2682.379150 1175.876587,2676.754395
	C1141.805542,2622.718750 1107.961914,2568.539551 1074.060669,2514.396973
	C1071.602661,2510.471191 1069.202148,2506.509766 1066.195190,2501.622559
	C1069.162476,2501.250000 1071.261475,2500.763184 1073.361816,2500.757324
	C1093.676758,2500.699707 1113.996460,2500.959229 1134.304321,2500.573486
	C1140.129150,2500.462646 1143.192627,2502.566162 1146.162964,2507.352051
	C1167.041260,2540.991943 1188.221924,2574.444092 1209.309082,2607.954346
	C1210.539917,2609.910400 1211.797974,2611.849365 1213.517578,2614.537598
	C1215.213135,2612.457764 1216.751221,2610.899414 1217.912231,2609.098389
	C1239.720337,2575.258789 1261.594116,2541.460205 1283.138184,2507.452881
	C1286.404907,2502.296143 1290.021729,2500.391846 1296.006226,2500.596191
	C1308.314331,2501.017090 1320.646851,2500.722900 1333.961304,2500.722900
z"/>
<path fill="none" opacity="1.000000" stroke="none"
	d="
M709.999023,2500.723877
	C720.906250,2500.723877 730.817993,2500.723877 741.165771,2500.723877
	C741.165771,2596.690674 741.165771,2691.549805 741.165771,2786.418945
	C734.281189,2788.457031 696.798584,2789.053955 678.379517,2787.344482
	C678.379517,2692.254150 678.379517,2597.104980 678.379517,2500.723877
	C688.534180,2500.723877 698.768921,2500.723877 709.999023,2500.723877
z"/>
<path fill="#2a2838" opacity="1.000000" stroke="none"
	d="
M1824.697266,2585.961914
	C1828.370361,2610.971924 1815.417847,2626.695068 1789.359375,2629.689697
	C1784.739014,2630.220947 1780.048218,2630.287354 1775.388916,2630.306396
	C1758.472778,2630.375732 1741.556274,2630.333984 1724.157593,2630.333984
	C1724.157593,2606.836182 1724.157593,2584.052246 1724.157593,2560.327881
	C1729.122314,2560.327881 1733.705200,2560.240967 1738.283936,2560.343506
	C1755.919312,2560.738281 1773.569824,2560.880615 1791.178711,2561.802246
	C1797.025513,2562.108154 1802.995361,2563.883057 1808.499634,2566.033936
	C1817.099365,2569.394287 1822.261963,2576.198730 1824.697266,2585.961914
z"/>
<path fill="#2a2838" opacity="1.000000" stroke="none"
	d="
M2082.133789,2724.496826
	C2061.022949,2729.464111 2040.486938,2727.808594 2019.625000,2728.015381
	C2019.625000,2671.890381 2019.625000,2616.735107 2019.625000,2560.334717
	C2028.054810,2560.334717 2036.268066,2560.115479 2044.465698,2560.381104
	C2060.430420,2560.897949 2076.384033,2561.811279 2091.827881,2566.397461
	C2125.698486,2576.455322 2144.222168,2599.480713 2145.482422,2634.815186
	C2145.891846,2646.301025 2144.591309,2658.125732 2142.150635,2669.378662
	C2136.642822,2694.771729 2120.573730,2711.468018 2096.302246,2720.332520
	C2091.947998,2721.922607 2087.412598,2723.016846 2082.133789,2724.496826
z"/>
<path fill="#2a2838" opacity="1.000000" stroke="none"
	d="
M973.851257,2628.073730
	C963.496277,2635.048096 952.384399,2637.409668 941.025391,2637.696777
	C920.715332,2638.209961 900.384888,2637.923584 880.062927,2637.926025
	C879.141052,2637.926270 878.219116,2637.480713 876.834717,2637.123535
	C876.834717,2611.898682 876.834717,2586.740234 876.834717,2560.941895
	C879.548462,2560.727051 882.101807,2560.313965 884.647583,2560.356201
	C905.615173,2560.704346 926.584839,2561.019043 947.545044,2561.641846
	C951.805237,2561.768311 956.121887,2562.826416 960.250610,2564.016602
	C973.213623,2567.753662 983.025696,2575.065674 986.123718,2588.975098
	C989.462891,2603.967041 987.248291,2617.453613 973.851257,2628.073730
z"/>
<path fill="#2a2838" opacity="1.000000" stroke="none"
	d="
M1435.479492,2680.174805
	C1435.080444,2678.021484 1435.203247,2676.016846 1435.958740,2674.288818
	C1446.596558,2649.953857 1457.314575,2625.653809 1468.042603,2601.358398
	C1468.554565,2600.198975 1469.338257,2599.159912 1470.862549,2596.620605
	C1483.056030,2624.901611 1494.733276,2651.985352 1507.006592,2680.451904
	C1482.549561,2680.451904 1459.422607,2680.451904 1435.479492,2680.174805
z"/>
</svg>
