<svg width="244" height="33" viewBox="0 0 244 33" fill="none" xmlns="http://www.w3.org/2000/svg">
<path d="M9.78681 4.05939H12.6081C12.6721 4.05939 12.7323 4.09001 12.7699 4.14176L15.5005 7.89638C15.5804 8.0062 15.7441 8.0062 15.824 7.89638L21.3358 0.317634C21.432 0.18544 21.3375 0 21.1741 0H0.200369C0.0343519 0 -0.0593869 0.190584 0.0419519 0.322083L15.1336 19.9053C15.214 20.0096 15.3717 20.009 15.4513 19.904L27.4114 4.13851C27.4492 4.08867 27.5082 4.05939 27.5707 4.05939H30.3903C30.5556 4.05939 30.6495 4.24844 30.5497 4.38016L17.0463 22.2047C16.9918 22.2767 16.9922 22.3763 17.0475 22.4477L19.9312 26.1796C20.0116 26.2837 20.169 26.2831 20.2486 26.1783L37.0063 4.13834C37.0441 4.0886 37.103 4.05939 37.1655 4.05939H39.8025C39.9675 4.05939 40.0615 4.24777 39.9624 4.37958L21.8416 28.4802C21.7881 28.5513 21.7881 28.6492 21.8415 28.7204L24.9131 32.8159C24.993 32.9224 25.1527 32.9226 25.2328 32.8164L49.7409 0.320428C49.8403 0.188649 49.7463 0 49.5812 0H24.8009C24.7395 0 24.6815 0.0282213 24.6436 0.0765426L15.4548 11.7878C15.3734 11.8915 15.2157 11.8895 15.137 11.7837L9.62636 4.37879C9.52817 4.24685 9.62234 4.05939 9.78681 4.05939Z" fill="#2a2838"/>
<path d="M241.532 26.0923C240.989 26.0923 240.521 25.9001 240.13 25.5156C239.739 25.1245 239.543 24.6539 239.543 24.1037C239.543 23.5601 239.739 23.0961 240.13 22.7116C240.521 22.3206 240.989 22.125 241.532 22.125C242.076 22.125 242.543 22.3206 242.934 22.7116C243.325 23.0961 243.521 23.5601 243.521 24.1037C243.521 24.4683 243.428 24.803 243.242 25.108C243.063 25.4063 242.825 25.6449 242.526 25.8239C242.228 26.0028 241.897 26.0923 241.532 26.0923Z" fill="#2a2838"/>
<path d="M237.126 14.3592L234.432 14.8365C234.319 14.4918 234.14 14.1636 233.895 13.8521C233.656 13.5405 233.331 13.2853 232.92 13.0865C232.509 12.8876 231.995 12.7882 231.379 12.7882C230.537 12.7882 229.834 12.9771 229.271 13.3549C228.708 13.7261 228.426 14.2067 228.426 14.7967C228.426 15.3071 228.615 15.7181 228.993 16.0297C229.37 16.3412 229.98 16.5964 230.822 16.7953L233.248 17.3521C234.654 17.6769 235.701 18.1774 236.39 18.8535C237.08 19.5297 237.424 20.408 237.424 21.4885C237.424 22.4032 237.159 23.2186 236.629 23.9345C236.105 24.6438 235.373 25.2006 234.432 25.6049C233.497 26.0093 232.413 26.2115 231.18 26.2115C229.47 26.2115 228.074 25.8469 226.994 25.1177C225.914 24.3819 225.251 23.3379 225.005 21.9856L227.879 21.5481C228.058 22.2972 228.426 22.8639 228.983 23.2484C229.539 23.6262 230.265 23.8152 231.16 23.8152C232.135 23.8152 232.914 23.613 233.497 23.2086C234.08 22.7976 234.372 22.2972 234.372 21.7072C234.372 21.2299 234.193 20.8289 233.835 20.5041C233.484 20.1793 232.943 19.934 232.214 19.7683L229.629 19.2015C228.204 18.8767 227.15 18.3597 226.467 17.6504C225.791 16.9411 225.453 16.0429 225.453 14.9558C225.453 14.0543 225.705 13.2654 226.208 12.5893C226.712 11.9132 227.408 11.3862 228.297 11.0083C229.185 10.6239 230.202 10.4316 231.349 10.4316C233 10.4316 234.299 10.7896 235.247 11.5055C236.195 12.2148 236.821 13.166 237.126 14.3592Z" fill="#2a2838"/>
<path d="M216.951 26.2115C215.446 26.2115 214.15 25.89 213.063 25.247C211.982 24.5974 211.147 23.6859 210.557 22.5126C209.974 21.3327 209.682 19.9506 209.682 18.3663C209.682 16.8019 209.974 15.4231 210.557 14.2299C211.147 13.0368 211.969 12.1054 213.023 11.4359C214.084 10.7664 215.323 10.4316 216.742 10.4316C217.604 10.4316 218.439 10.5742 219.247 10.8592C220.056 11.1442 220.782 11.5917 221.425 12.2015C222.068 12.8114 222.575 13.6035 222.946 14.5779C223.318 15.5458 223.503 16.7224 223.503 18.1078V19.1618H211.363V16.9345H220.59C220.59 16.1523 220.431 15.4596 220.113 14.8564C219.794 14.2465 219.347 13.7659 218.77 13.4146C218.2 13.0633 217.531 12.8876 216.762 12.8876C215.926 12.8876 215.197 13.0931 214.574 13.5041C213.958 13.9084 213.48 14.4387 213.142 15.095C212.811 15.7446 212.645 16.4506 212.645 17.2129V18.9529C212.645 19.9738 212.824 20.8422 213.182 21.5581C213.547 22.274 214.054 22.8208 214.703 23.1987C215.353 23.5699 216.112 23.7555 216.98 23.7555C217.544 23.7555 218.058 23.676 218.522 23.5169C218.986 23.3511 219.387 23.1059 219.725 22.7811C220.063 22.4563 220.321 22.0552 220.5 21.5779L223.314 22.085C223.089 22.9136 222.684 23.6395 222.101 24.2626C221.524 24.8791 220.799 25.3597 219.924 25.7044C219.055 26.0424 218.064 26.2115 216.951 26.2115Z" fill="#2a2838"/>
<path d="M197.727 16.835V25.9032H194.754V10.6305H197.608V13.1163H197.797C198.148 12.3076 198.698 11.658 199.447 11.1674C200.203 10.6769 201.154 10.4316 202.301 10.4316C203.342 10.4316 204.253 10.6504 205.035 11.0879C205.817 11.5188 206.424 12.1618 206.855 13.0169C207.286 13.872 207.501 14.9293 207.501 16.1887V25.9032H204.528V16.5467C204.528 15.4397 204.24 14.5746 203.663 13.9515C203.086 13.3218 202.294 13.0069 201.287 13.0069C200.597 13.0069 199.984 13.1561 199.447 13.4544C198.917 13.7527 198.496 14.1902 198.184 14.7669C197.879 15.3369 197.727 16.0263 197.727 16.835Z" fill="#2a2838"/>
<path d="M188.901 25.9036V10.6309H191.874V25.9036H188.901ZM190.403 8.27433C189.886 8.27433 189.442 8.10198 189.07 7.75728C188.706 7.40595 188.523 6.98834 188.523 6.50444C188.523 6.01391 188.706 5.59629 189.07 5.2516C189.442 4.90027 189.886 4.72461 190.403 4.72461C190.92 4.72461 191.361 4.90027 191.725 5.2516C192.096 5.59629 192.282 6.01391 192.282 6.50444C192.282 6.98834 192.096 7.40595 191.725 7.75728C191.361 8.10198 190.92 8.27433 190.403 8.27433Z" fill="#2a2838"/>
<path d="M176.15 16.8345V25.9027H173.177V5.53906H176.11V13.1158H176.299C176.657 12.2938 177.204 11.6409 177.94 11.157C178.676 10.6731 179.637 10.4311 180.824 10.4311C181.871 10.4311 182.786 10.6465 183.568 11.0774C184.357 11.5083 184.967 12.1513 185.397 13.0064C185.835 13.8549 186.054 14.9155 186.054 16.1882V25.9027H183.081V16.5462C183.081 15.4259 182.792 14.5575 182.216 13.9411C181.639 13.3179 180.837 13.0064 179.809 13.0064C179.107 13.0064 178.477 13.1555 177.92 13.4538C177.37 13.7521 176.936 14.1896 176.618 14.7663C176.306 15.3364 176.15 16.0258 176.15 16.8345Z" fill="#2a2838"/>
<path d="M164.844 26.2115C163.366 26.2115 162.093 25.8767 161.026 25.2072C159.965 24.5311 159.15 23.5997 158.58 22.4132C158.01 21.2266 157.725 19.8677 157.725 18.3365C157.725 16.7853 158.016 15.4165 158.6 14.2299C159.183 13.0368 160.005 12.1054 161.066 11.4359C162.126 10.7664 163.376 10.4316 164.814 10.4316C165.974 10.4316 167.008 10.6471 167.916 11.0779C168.825 11.5022 169.557 12.0988 170.114 12.8677C170.677 13.6367 171.012 14.5349 171.118 15.5623H168.225C168.066 14.8464 167.701 14.2299 167.131 13.7129C166.567 13.1958 165.812 12.9373 164.864 12.9373C164.035 12.9373 163.309 13.1561 162.686 13.5936C162.07 14.0244 161.589 14.6409 161.244 15.443C160.9 16.2385 160.727 17.1797 160.727 18.2669C160.727 19.3805 160.896 20.3417 161.235 21.1504C161.573 21.9591 162.05 22.5855 162.666 23.0297C163.289 23.4738 164.022 23.6958 164.864 23.6958C165.427 23.6958 165.938 23.5931 166.395 23.3876C166.859 23.1755 167.247 22.8739 167.558 22.4828C167.877 22.0917 168.099 21.621 168.225 21.0708H171.118C171.012 22.0585 170.691 22.9402 170.154 23.7157C169.617 24.4913 168.897 25.1011 167.996 25.5453C167.101 25.9894 166.05 26.2115 164.844 26.2115Z" fill="#2a2838"/>
<path d="M148.034 26.2413C147.066 26.2413 146.191 26.0623 145.409 25.7044C144.626 25.3398 144.007 24.8128 143.549 24.1234C143.098 23.434 142.873 22.5888 142.873 21.5879C142.873 20.7261 143.039 20.0169 143.37 19.46C143.702 18.9032 144.149 18.4624 144.713 18.1376C145.276 17.8128 145.906 17.5675 146.602 17.4018C147.298 17.2361 148.007 17.1101 148.73 17.024C149.644 16.9179 150.387 16.8317 150.957 16.7654C151.527 16.6925 151.941 16.5765 152.2 16.4174C152.458 16.2583 152.588 15.9998 152.588 15.6419V15.5723C152.588 14.7039 152.342 14.0311 151.852 13.5538C151.368 13.0765 150.645 12.8379 149.684 12.8379C148.683 12.8379 147.894 13.06 147.318 13.5041C146.748 13.9416 146.353 14.4288 146.134 14.9657L143.34 14.3294C143.672 13.4013 144.156 12.6523 144.792 12.0822C145.435 11.5055 146.174 11.0879 147.009 10.8294C147.845 10.5642 148.723 10.4316 149.644 10.4316C150.254 10.4316 150.901 10.5046 151.583 10.6504C152.273 10.7896 152.916 11.0481 153.512 11.426C154.115 11.8038 154.609 12.344 154.994 13.0467C155.378 13.7427 155.57 14.6476 155.57 15.7612V25.9032H152.667V23.8152H152.548C152.356 24.1996 152.067 24.5775 151.683 24.9487C151.298 25.3199 150.804 25.6281 150.201 25.8734C149.598 26.1187 148.875 26.2413 148.034 26.2413ZM148.68 23.8549C149.502 23.8549 150.204 23.6925 150.788 23.3677C151.378 23.0429 151.825 22.6187 152.13 22.095C152.442 21.5647 152.597 20.9979 152.597 20.3947V18.426C152.491 18.532 152.286 18.6315 151.981 18.7243C151.683 18.8104 151.341 18.8867 150.957 18.9529C150.572 19.0126 150.198 19.069 149.833 19.122C149.469 19.1684 149.164 19.2082 148.919 19.2413C148.342 19.3142 147.815 19.4368 147.338 19.6092C146.867 19.7815 146.489 20.0301 146.204 20.3549C145.926 20.6731 145.786 21.0974 145.786 21.6277C145.786 22.3635 146.058 22.9203 146.602 23.2981C147.145 23.6693 147.838 23.8549 148.68 23.8549Z" fill="#2a2838"/>
<path d="M119.963 25.9032V10.6305H122.817V13.1163H123.006C123.324 12.2744 123.844 11.6182 124.567 11.1475C125.289 10.6703 126.154 10.4316 127.162 10.4316C128.183 10.4316 129.038 10.6703 129.727 11.1475C130.423 11.6248 130.937 12.2811 131.268 13.1163H131.427C131.792 12.301 132.372 11.6513 133.167 11.1674C133.963 10.6769 134.911 10.4316 136.011 10.4316C137.397 10.4316 138.527 10.8658 139.402 11.7342C140.283 12.6026 140.724 13.9118 140.724 15.6618V25.9032H137.751V15.9402C137.751 14.9061 137.47 14.157 136.906 13.693C136.343 13.229 135.67 12.997 134.888 12.997C133.92 12.997 133.167 13.2953 132.631 13.8919C132.094 14.4818 131.825 15.2408 131.825 16.1689V25.9032H128.862V15.7512C128.862 14.9226 128.604 14.2565 128.086 13.7527C127.569 13.2489 126.897 12.997 126.068 12.997C125.505 12.997 124.984 13.1461 124.507 13.4444C124.036 13.7361 123.655 14.1438 123.363 14.6674C123.078 15.1911 122.936 15.7976 122.936 16.487V25.9032H119.963Z" fill="#2a2838"/>
<path d="M102.983 26.201C101.75 26.201 100.65 25.8861 99.682 25.2564C98.7208 24.62 97.9651 23.7152 97.415 22.5419C96.8714 21.362 96.5996 19.9467 96.5996 18.2962C96.5996 16.6456 96.8747 15.2337 97.4249 14.0604C97.9817 12.8871 98.744 11.9889 99.7118 11.3658C100.68 10.7427 101.777 10.4311 103.003 10.4311C103.951 10.4311 104.713 10.5902 105.29 10.9084C105.873 11.2199 106.324 11.5845 106.642 12.0021C106.967 12.4197 107.219 12.7876 107.398 13.1058H107.577V5.53906H110.55V25.9027H107.646V23.5263H107.398C107.219 23.8511 106.96 24.2223 106.622 24.6399C106.291 25.0575 105.834 25.4221 105.25 25.7337C104.667 26.0452 103.911 26.201 102.983 26.201ZM103.639 23.6655C104.494 23.6655 105.217 23.4401 105.807 22.9893C106.404 22.532 106.854 21.8989 107.159 21.0902C107.471 20.2815 107.627 19.3402 107.627 18.2663C107.627 17.2057 107.474 16.2777 107.169 15.4822C106.864 14.6868 106.417 14.067 105.827 13.6229C105.237 13.1787 104.508 12.9567 103.639 12.9567C102.744 12.9567 101.999 13.1887 101.402 13.6527C100.806 14.1167 100.355 14.7498 100.05 15.5518C99.7516 16.3539 99.6025 17.2588 99.6025 18.2663C99.6025 19.2872 99.7549 20.2053 100.06 21.0206C100.365 21.8359 100.816 22.4822 101.412 22.9595C102.015 23.4302 102.758 23.6655 103.639 23.6655Z" fill="#2a2838"/>
<path d="M91.413 25.9036V10.6309H94.386V25.9036H91.413ZM92.9144 8.27433C92.3974 8.27433 91.9532 8.10198 91.582 7.75728C91.2174 7.40595 91.0352 6.98834 91.0352 6.50444C91.0352 6.01391 91.2174 5.59629 91.582 5.2516C91.9532 4.90027 92.3974 4.72461 92.9144 4.72461C93.4315 4.72461 93.8723 4.90027 94.2369 5.2516C94.6081 5.59629 94.7937 6.01391 94.7937 6.50444C94.7937 6.98834 94.6081 7.40595 94.2369 7.75728C93.8723 8.10198 93.4315 8.27433 92.9144 8.27433Z" fill="#2a2838"/>
<path d="M89.7387 10.6309L84.2003 25.9036H81.0185L75.4702 10.6309H78.662L82.5299 22.3837H82.689L86.5469 10.6309H89.7387Z" fill="#2a2838"/>
<path d="M70.8207 25.9036V10.6309H73.7937V25.9036H70.8207ZM72.3221 8.27433C71.8051 8.27433 71.361 8.10198 70.9897 7.75728C70.6252 7.40595 70.4429 6.98834 70.4429 6.50444C70.4429 6.01391 70.6252 5.59629 70.9897 5.2516C71.361 4.90027 71.8051 4.72461 72.3221 4.72461C72.8392 4.72461 73.28 4.90027 73.6446 5.2516C74.0158 5.59629 74.2014 6.01391 74.2014 6.50444C74.2014 6.98834 74.0158 7.40595 73.6446 7.75728C73.28 8.10198 72.8392 8.27433 72.3221 8.27433Z" fill="#2a2838"/>
<path d="M69.1469 10.6309L63.6085 25.9036H60.4267L54.8784 10.6309H58.0702L61.9381 22.3837H62.0972L65.9551 10.6309H69.1469Z" fill="#2a2838"/>
</svg>
